<?xml version="1.0" encoding="utf-8"?>
<!-- Generator: Adobe Illustrator 24.3.0, SVG Export Plug-In . SVG Version: 6.00 Build 0)  -->
<svg version="1.1" id="Layer_1" xmlns="http://www.w3.org/2000/svg" xmlns:xlink="http://www.w3.org/1999/xlink" x="0px" y="0px"
	 viewBox="0 0 512 512" style="enable-background:new 0 0 512 512;" xml:space="preserve">
<style type="text/css">
	.st0{fill:#003D79;}
	.st1{fill:url(#SVGID_1_);}
</style>
<g id="XMLID_1_">
	<path id="XMLID_2_" class="st0" d="M0.51,283.92c0-7.44-0.14-13.61-0.56-19.22h14.03l0.7,9.54h0.42
		c3.23-5.05,8.98-10.94,19.78-10.94c8.42,0,15.01,4.77,17.82,11.93h0.28c2.24-3.51,4.91-6.17,7.86-8c3.51-2.53,7.72-3.79,12.91-3.79
		c10.66,0,21.61,7.3,21.61,27.92v37.88H79.51v-35.5c0-10.66-3.65-17.12-11.51-17.12c-5.61,0-9.68,3.93-11.37,8.56
		c-0.42,1.54-0.84,3.51-0.84,5.47v38.59H39.94v-37.32c0-8.98-3.51-15.29-11.08-15.29c-6.03,0-10.1,4.77-11.65,9.26
		c-0.7,1.54-0.98,3.51-0.98,5.33v38.02H0.51V283.92z"/>
	<path id="XMLID_3_" class="st0" d="M157.24,313.67c0,5.75,0.28,11.51,0.98,15.43h-14.73l-1.12-7.16h-0.42
		c-3.93,5.05-10.66,8.56-19.08,8.56c-12.91,0-20.2-9.4-20.2-19.22c0-16.28,14.45-24.41,38.16-24.27v-1.12
		c0-4.21-1.68-11.23-13.05-11.23c-6.31,0-12.91,1.96-17.26,4.77l-3.23-10.52c4.77-2.95,13.05-5.75,23.29-5.75
		c20.63,0,26.52,13.05,26.52,27.08v23.43H157.24z M141.24,297.67c-11.51-0.28-22.45,2.24-22.45,12.07c0,6.31,4.07,9.26,9.26,9.26
		c6.45,0,11.22-4.21,12.63-8.84c0.42-1.26,0.56-2.53,0.56-3.51V297.67z"/>
	<path id="XMLID_6_" class="st0" d="M168.47,283.92c0-7.44-0.14-13.61-0.56-19.22h14.31l0.84,9.68h0.42
		c2.81-5.05,9.82-11.08,20.49-11.08c11.22,0,22.87,7.3,22.87,27.64v38.16h-16.28v-36.34c0-9.26-3.51-16.28-12.35-16.28
		c-6.45,0-10.94,4.63-12.63,9.54c-0.56,1.4-0.7,3.37-0.7,5.33v37.74h-16.42L168.47,283.92L168.47,283.92z"/>
	<path id="XMLID_7_" class="st0" d="M297.13,238.88V311c0,6.59,0.28,13.75,0.56,18.1H283.1l-0.7-10.24h-0.28
		c-3.79,7.16-11.65,11.65-21.05,11.65c-15.29,0-27.5-13.05-27.5-32.83c-0.14-21.61,13.33-34.38,28.76-34.38
		c8.84,0,15.15,3.65,18.1,8.42h0.28v-32.83L297.13,238.88L297.13,238.88z M281,291.64c0-1.26-0.14-2.95-0.42-4.21
		c-1.4-6.31-6.59-11.51-14.03-11.51c-10.38,0-16.28,9.26-16.28,21.33c0,11.79,5.75,20.35,16.14,20.35c6.59,0,12.49-4.49,14.03-11.51
		c0.42-1.4,0.56-3.09,0.56-4.77V291.64z"/>
	<rect id="XMLID_10_" x="308.64" y="264.7" class="st0" width="16.42" height="64.4"/>
	<path id="XMLID_11_" class="st0" d="M336.56,285.47c0-8.7-0.14-15.01-0.56-20.77h14.17l0.56,12.35h0.56
		c3.23-9.12,10.66-12.35,17.54-12.35c1.54,0,2.53-0.28,3.79,0v14.31c-1.26-0.28-2.81-0.56-4.77-0.56c-7.86,0-13.05,5.05-14.59,12.35
		c-0.28,1.4-0.56,3.23-0.56,5.05v33.25h-16.28v-43.64H336.56z"/>
	<rect id="XMLID_12_" x="380.2" y="264.7" class="st0" width="16.42" height="64.4"/>
	
		<linearGradient id="SVGID_1_" gradientUnits="userSpaceOnUse" x1="-118.5313" y1="921.2674" x2="-116.2113" y2="921.2674" gradientTransform="matrix(144.6874 -66.855 -66.855 -144.6874 78965.5391 125650.3906)">
		<stop  offset="0" style="stop-color:#FDB913"/>
		<stop  offset="0.2247" style="stop-color:#FFCB05"/>
		<stop  offset="0.3933" style="stop-color:#FAA61A"/>
		<stop  offset="0.5281" style="stop-color:#FFCB05"/>
		<stop  offset="0.6461" style="stop-color:#FAA61A"/>
		<stop  offset="0.764" style="stop-color:#FFCB05"/>
		<stop  offset="1" style="stop-color:#FFCB05"/>
	</linearGradient>
	<path class="st1" d="M376.83,186.83c-9.82,5.75-41.95,24.13-41.95,24.13c-12.07,4.91-21.33-1.12-24.27-5.47l-0.42-0.56l-0.42-0.7
		l-2.1-3.37c-0.84-1.4-1.82-2.81-2.95-4.21c-0.98-1.26-2.1-2.53-3.23-3.79c-7.72-7.86-20.2-13.33-40.83-3.51
		c-12.49,7.16-41.53,23.71-41.53,23.71l0,0c-11.93,6.88-21.33,12.21-21.33,12.21l10.94,13.47c4.63,4.35,13.33,11.65,26.8,5.61
		l37.32-21.61c31.71-17.4,47.43-0.84,54.44,10.38c0.28,0.28,0.42,0.7,0.7,1.12l0,0l0.14,0.42l0.84,1.26
		c3.37,5.05,8.7,8.42,15.01,8.28c3.51,0,5.89-1.26,9.4-3.09l35.92-20.91h0.14c32.13-17.68,48.13,0.14,54.86,11.22
		c0.56,0.98,1.12,1.82,1.68,2.67c3.37,4.63,8,7.58,13.89,7.44c3.93-0.14,8.28-2.39,8.98-2.81l43.08-24.84c0,0-4.35-6.59-13.47-16.98
		c-8.14-9.26-16.7-5.05-23.57-1.68c-2.95,1.4-23.71,13.19-23.71,13.19c-11.37,4.77-20.35-0.42-23.71-4.77
		c-0.42-0.42-0.7-0.84-0.84-1.26l-0.84-1.4c-1.26-2.1-2.81-4.49-4.63-6.88c-0.98-1.26-2.1-2.53-3.23-3.79
		c-4.77-4.91-11.37-8.84-20.49-8.84C391.7,181.36,384.97,182.9,376.83,186.83"/>
</g>
</svg>
